<svg width="14" height="18" viewBox="0 0 14 18" fill="none" xmlns="http://www.w3.org/2000/svg">
<path d="M0 3.375C0 2.75273 0.446875 2.25 1 2.25H13C13.5531 2.25 14 2.75273 14 3.375C14 3.99727 13.5531 4.5 13 4.5H1C0.446875 4.5 0 3.99727 0 3.375ZM0 9C0 8.37773 0.446875 7.875 1 7.875H13C13.5531 7.875 14 8.37773 14 9C14 9.62227 13.5531 10.125 13 10.125H1C0.446875 10.125 0 9.62227 0 9ZM14 14.625C14 15.2473 13.5531 15.75 13 15.75H1C0.446875 15.75 0 15.2473 0 14.625C0 14.0027 0.446875 13.5 1 13.5H13C13.5531 13.5 14 14.0027 14 14.625Z" fill="white"/>
</svg>
