<svg width="16" height="16" viewBox="0 0 16 16" fill="none" xmlns="http://www.w3.org/2000/svg">
<path d="M11.2946 8.96221C11.3133 9.05314 11.599 12.0094 11.4953 12.5809C11.3458 13.409 10.3131 14 8.10106 14C5.97044 14 4.88223 13.2881 4.67362 12.4399C4.47407 11.6336 4.86896 8.90984 4.88825 8.82122C5.36996 6.56244 7.30705 6.44331 7.97626 6.43871H8.18426C8.80946 6.43871 10.8008 6.65567 11.2946 8.96221ZM3.36535 7.03031C3.56189 7.03031 3.90795 7.04009 4.28054 7.16267C4.03034 7.57587 3.84284 8.04949 3.72829 8.58469C3.72287 8.61059 3.24357 11.5847 3.5209 12.7109C3.52271 12.7178 3.52753 12.7224 3.52934 12.7293C3.35631 12.7161 3.17665 12.6913 2.98915 12.6459C1.32457 12.2477 0.692735 11.4615 0.670428 11.0276C0.636667 10.3601 0.8314 9.01861 0.847076 8.94667C1.24257 7.09073 2.72749 7.03031 3.2303 7.03031H3.36535ZM12.8084 7.03031C13.3432 7.03376 14.766 7.13562 15.1525 8.94667C15.1682 9.01861 15.3635 10.3601 15.3291 11.0276C15.308 11.4615 14.6756 12.2476 13.011 12.6465C12.8946 12.6735 12.7819 12.6948 12.6716 12.7098C12.7897 11.8143 12.4774 8.83963 12.4533 8.72626C12.3201 8.10128 12.0922 7.57529 11.801 7.13735C12.1416 7.03952 12.4527 7.03031 12.6348 7.03031H12.8084ZM12.6842 3.46C13.5482 3.46 14.2493 4.14483 14.2493 4.99022C14.2493 5.83503 13.5482 6.52043 12.6842 6.52043C11.8197 6.52043 11.1173 5.83503 11.1173 4.99022C11.1173 4.14483 11.8197 3.46 12.6842 3.46ZM3.31591 3.46C4.18106 3.46 4.88223 4.14483 4.88223 4.99022C4.88223 5.83503 4.18106 6.52043 3.31591 6.52043C2.45197 6.52043 1.75141 5.83503 1.75141 4.99022C1.75141 4.14483 2.45197 3.46 3.31591 3.46ZM8.12457 2C9.19953 2 10.0713 2.85114 10.0713 3.9014C10.0713 4.95223 9.19953 5.80395 8.12457 5.80395C7.04841 5.80395 6.17663 4.95223 6.17663 3.9014C6.17663 2.85114 7.04841 2 8.12457 2Z" fill="white"/>
</svg>
