<svg width="16" height="16" viewBox="0 0 16 16" fill="none" xmlns="http://www.w3.org/2000/svg">
<path d="M9.91973 2C10.7936 2 11.2306 2.54733 11.2306 3.17433C11.2306 3.95733 10.4715 4.68167 9.4835 4.68167C8.65596 4.68167 8.17335 4.23167 8.19618 3.48767C8.19618 2.862 8.77081 2.00033 9.91973 2.00033V2ZM7.2306 14C6.54074 14 6.03531 13.6087 6.51792 11.8857L7.30958 8.83033C7.44726 8.342 7.47009 8.14567 7.30958 8.14567C7.1027 8.14567 6.20813 8.483 5.6777 8.816L5.3335 8.288C7.01103 6.97633 8.94074 6.20767 9.769 6.20767C10.4585 6.20767 10.573 6.97133 10.2288 8.14567L9.32154 11.357C9.16103 11.924 9.22951 12.1197 9.39074 12.1197C9.59763 12.1197 10.2759 11.8843 10.9422 11.3953L11.3335 11.8837C9.70161 13.412 7.91937 14 7.2306 14Z" fill="white"/>
</svg>
