<svg width="24" height="31" viewBox="0 0 24 31" fill="none" xmlns="http://www.w3.org/2000/svg">
<g clip-path="url(#clip0_9_2)">
<mask id="mask0_9_2" style="mask-type:luminance" maskUnits="userSpaceOnUse" x="0" y="0" width="24" height="31">
<path d="M24 0H0V31H24V0Z" fill="white"/>
</mask>
<g mask="url(#mask0_9_2)">
<path fill-rule="evenodd" clip-rule="evenodd" d="M0.72219 14.1367H2.95942V13.8655V9.36385C2.95942 6.7893 4.0025 4.44843 5.68085 2.75236V2.75009C7.35995 1.05377 9.6776 0 12.2277 0C14.7759 0 17.093 1.05377 18.7722 2.75009L18.7747 2.75236C20.453 4.44843 21.496 6.7893 21.496 9.36385V13.8655V14.1367H23.278C23.6751 14.1367 24.0002 14.4652 24.0002 14.866V30.2707C24.0002 30.6716 23.6751 31 23.278 31H0.72219C0.325134 31 0 30.6716 0 30.2707V14.866C0 14.4652 0.325134 14.1367 0.72219 14.1367ZM6.56035 14.1367H17.8944V13.8655V9.31185C17.8944 7.73765 17.2566 6.30545 16.2307 5.26785L16.2295 5.26885C15.2029 4.23096 13.7855 3.5864 12.2277 3.5864C10.6692 3.5864 9.25185 4.23071 8.224 5.26785C7.1979 6.30545 6.56035 7.73765 6.56035 9.31185V13.8658V14.1367ZM12.2734 22.5658L13.4174 27.8988L10.2817 27.9121L11.2019 22.5075C10.3451 22.23 9.72405 21.4189 9.72405 20.4613C9.72405 19.2753 10.6755 18.3141 11.8499 18.3141C13.0231 18.3141 13.9753 19.2753 13.9753 20.4613C13.9753 21.5007 13.2441 22.3678 12.2734 22.5658Z" fill="white"/>
</g>
</g>
<defs>
<clipPath id="clip0_9_2">
<rect width="24" height="31" fill="white"/>
</clipPath>
</defs>
</svg>
