<svg width="24" height="24" viewBox="0 0 24 24" fill="none" xmlns="http://www.w3.org/2000/svg">
<path d="M12.56 7.97662H17.0413C17.7486 7.97662 18.4269 8.25758 18.927 8.75767C19.427 9.25777 19.708 9.93605 19.708 10.6433V17.3333C19.708 18.0405 19.427 18.7188 18.927 19.2189C18.4269 19.719 17.7486 20 17.0413 20H6.91667C6.20942 20 5.53115 19.719 5.03105 19.2189C4.53095 18.7188 4.25 18.0405 4.25 17.3333V10.6433C4.25 9.93605 4.53095 9.25777 5.03105 8.75767C5.53115 8.25758 6.20942 7.97662 6.91667 7.97662H11.0573L8.40333 5.32262C8.33137 5.2507 8.27428 5.16531 8.23531 5.07133C8.19635 4.97734 8.17628 4.8766 8.17625 4.77486C8.17622 4.67312 8.19622 4.57236 8.23513 4.47836C8.27404 4.38435 8.33108 4.29892 8.403 4.22696C8.47492 4.15499 8.56031 4.0979 8.6543 4.05893C8.74828 4.01997 8.84902 3.9999 8.95076 3.99987C9.05251 3.99984 9.15326 4.01985 9.24727 4.05875C9.34128 4.09766 9.4267 4.1547 9.49867 4.22662L11.8087 6.53662L14.118 4.22662C14.2633 4.08128 14.4605 3.99963 14.666 3.99963C14.8715 3.99963 15.0687 4.08128 15.214 4.22662C15.3593 4.37196 15.441 4.56908 15.441 4.77462C15.441 4.98016 15.3593 5.17728 15.214 5.32262L12.5593 7.97662H12.56ZM16.8453 13.13C17.1491 13.13 17.4404 13.0093 17.6552 12.7945C17.87 12.5797 17.9907 12.2884 17.9907 11.9846C17.9907 11.6809 17.87 11.3895 17.6552 11.1748C17.4404 10.96 17.1491 10.8393 16.8453 10.8393C16.5416 10.8393 16.2503 10.96 16.0355 11.1748C15.8207 11.3895 15.7 11.6809 15.7 11.9846C15.7 12.2884 15.8207 12.5797 16.0355 12.7945C16.2503 13.0093 16.5416 13.13 16.8453 13.13ZM16.8453 17.1373C16.998 17.141 17.1499 17.1141 17.292 17.0582C17.4342 17.0023 17.5637 16.9186 17.673 16.8119C17.7823 16.7052 17.8692 16.5777 17.9285 16.437C17.9878 16.2962 18.0183 16.145 18.0183 15.9923C18.0183 15.8396 17.9878 15.6884 17.9285 15.5476C17.8692 15.4069 17.7823 15.2794 17.673 15.1727C17.5637 15.066 17.4342 14.9823 17.292 14.9264C17.1499 14.8705 16.998 14.8436 16.8453 14.8473C16.5464 14.8545 16.2622 14.9783 16.0534 15.1922C15.8445 15.4062 15.7276 15.6933 15.7276 15.9923C15.7276 16.2913 15.8445 16.5784 16.0534 16.7923C16.2622 17.0063 16.5464 17.1301 16.8453 17.1373Z" fill="white"/>
</svg>
