<svg width="24" height="24" viewBox="0 0 24 24" fill="none" xmlns="http://www.w3.org/2000/svg">
<path d="M18.0982 13.614L7.5135 19.516C7.29031 19.6402 7.03855 19.704 6.78313 19.701C6.52771 19.698 6.2775 19.6284 6.05726 19.499C5.83702 19.3697 5.65439 19.185 5.52744 18.9633C5.4005 18.7417 5.33364 18.4907 5.3335 18.2353V6.43128C5.33358 6.17575 5.40042 5.92468 5.5274 5.70293C5.65438 5.48119 5.83709 5.29646 6.05743 5.16706C6.27777 5.03766 6.5281 4.96807 6.78361 4.96518C7.03912 4.9623 7.29096 5.02622 7.51416 5.15062L18.0982 11.0519C18.3263 11.1791 18.5163 11.3649 18.6486 11.5901C18.7808 11.8153 18.8506 12.0718 18.8506 12.333C18.8506 12.5941 18.7808 12.8506 18.6486 13.0758C18.5163 13.301 18.3263 13.4868 18.0982 13.614Z" fill="#1A1D29"/>
</svg>
